<?xml version="1.0" encoding="utf-8"?>
<!-- Generator: Adobe Illustrator 19.0.0, SVG Export Plug-In . SVG Version: 6.00 Build 0)  -->
<svg version="1.1" id="Capa_1" xmlns="http://www.w3.org/2000/svg" xmlns:xlink="http://www.w3.org/1999/xlink" x="0px" y="0px"
	 viewBox="-144 82 50 50" style="enable-background:new -144 82 50 50;" xml:space="preserve">
<style type="text/css">
	.st0{fill:#E62F31;}
	.st1{fill:#FFFFFF;}
</style>
<circle id="XMLID_3_" class="st0" cx="-119" cy="107" r="25"/>
<g id="XMLID_1_">
</g>
<g id="XMLID_7_">
</g>
<g id="XMLID_8_">
</g>
<g id="XMLID_9_">
</g>
<g id="XMLID_10_">
</g>
<g id="XMLID_11_">
</g>
<g>
	<g>
		<path class="st1" d="M-127.1,92.7c0-0.4-0.4-0.8-0.8-0.8h-3.7c-0.4,0-0.8,0.3-0.8,0.8v4.7l5.3-4V92.7z"/>
		<path class="st1" d="M-116.3,105c0.6-0.4,1.7-0.4,2.2,0.1c0.2,0.1,0.4,0.1,0.4-0.1c0-0.2-0.1-0.4-0.2-0.6
			c-0.3-0.9-0.4-1.8-0.5-2.8c-0.1-1.5,0.2-3,0.7-4.4l-7.5-5.8c-0.1-0.1-0.3-0.1-0.4-0.1s-0.3,0-0.4,0.1l-5.1,3.9l-5.3,4l-4.6,3.5
			c-0.3,0.2-0.3,0.6-0.1,0.9l2.2,2.9c0.1,0.2,0.3,0.3,0.5,0.3c0.1,0,0.3,0,0.4-0.1l1.5-1.2v11.8c0,0.4,0.3,0.7,0.7,0.7h10.7
			c-0.4-1.2-0.6-2.4-0.6-3.7c0-1.9,0.5-3.9,1.5-5.5C-119.3,107.3-117.9,106-116.3,105z"/>
		<path class="st1" d="M-103.1,107.1c-0.5-0.8-1.1-1.6-1.7-2.5h0c-0.2-0.2-0.3-0.5-0.5-0.7c-0.5-0.8-1.1-1.7-1.7-2.5h0
			c-0.4-0.6-0.7-1.2-1.1-1.8c-0.8-1.4-1.4-2.8-1.6-3.9c-0.1-0.3-0.3-0.5-0.6-0.5c-0.2,0-0.4,0.1-0.5,0.2c0,0-0.6,0.6-1,1.4
			c-1.1,2-1.4,4.5-0.8,6.7c0.2,0.8,0.7,1.6,0.8,2.4c0.1,0.9-0.6,1.8-1.6,1.8c-0.7,0-1.3-0.4-1.5-1.1c-0.1-0.2-0.3-0.4-0.5-0.4
			c-0.1,0-0.2,0-0.3,0.1c-2.8,1.7-4.6,4.8-4.6,8.3c0,1.3,0.3,2.5,0.7,3.7c0.8,1.8,2.1,3.4,3.7,4.5c0.1,0,0.1,0.1,0.2,0.1
			c0.3,0,0.5-0.3,0.3-0.6c-0.4-0.7-0.6-1.5-0.6-2.4c0-2,1.1-3.6,2.7-4.7c1.4-0.9,1.1-2.2,1.3-3.6c0.1-0.8,0.6-1.5,1-2.1
			c0.1-0.1,0.2-0.1,0.3-0.1c0.2,0,0.3,0.1,0.4,0.3c0.3,1.6,2.4,4.3,3.6,6.1c1.5,2.2,1.3,4.1,1.3,4.1c0,0.9-0.2,1.7-0.6,2.4
			c-0.1,0.3,0.1,0.6,0.3,0.6c0.1,0,0.1,0,0.2-0.1c2.7-1.7,4.4-4.7,4.4-8.1C-100.7,114.5-100.4,111-103.1,107.1z"/>
	</g>
</g>
</svg>
