<?xml version="1.0" encoding="utf-8"?>
<!-- Generator: Adobe Illustrator 19.0.0, SVG Export Plug-In . SVG Version: 6.00 Build 0)  -->
<svg version="1.1" id="Capa_1" xmlns="http://www.w3.org/2000/svg" xmlns:xlink="http://www.w3.org/1999/xlink" x="0px" y="0px"
	 viewBox="0 0 50 50" style="enable-background:new 0 0 50 50;" xml:space="preserve">
<style type="text/css">
	.st0{fill:#E62F31;}
	.st1{fill:#FFFFFF;}
</style>
<g>
	<circle id="XMLID_1_" class="st0" cx="25" cy="25" r="25"/>
	<g id="fa-support_6_">
		<path id="XMLID_3_" class="st1" d="M37.7,22.2C34,18.9,30,17.1,25,17.1c-5,0-9,1.8-12.7,5.1c-0.1,0.1-0.2,0.1-0.4,0.1
			c-0.4,0-2.7-2.3-2.7-2.7c0-0.1,0.1-0.3,0.2-0.4c4.1-4,9.9-6.3,15.6-6.3c5.7,0,11.6,2.2,15.6,6.3c0.1,0.1,0.2,0.2,0.2,0.4
			c0,0.4-2.3,2.7-2.7,2.7C38,22.3,37.8,22.3,37.7,22.2z M33.4,26.5c-2.7-2.1-4.9-3.3-8.4-3.3c-4.9,0-8.5,3.4-8.7,3.4
			c-0.4,0-2.7-2.3-2.7-2.7c0-0.1,0.1-0.3,0.2-0.4c2.9-2.9,7.2-4.5,11.2-4.5c4,0,8.4,1.6,11.2,4.5c0.1,0.1,0.2,0.2,0.2,0.4
			c0,0.4-2.3,2.7-2.7,2.7C33.6,26.7,33.5,26.6,33.4,26.5z M25,29.4c-2.4,0-4.1,1.6-4.3,1.6c-0.4,0-2.7-2.3-2.7-2.7
			c0-0.1,0.1-0.3,0.2-0.4c1.7-1.7,4.5-2.7,6.9-2.7s5.2,0.9,6.9,2.7c0.1,0.1,0.2,0.2,0.2,0.4c0,0.4-2.3,2.7-2.7,2.7
			C29.1,31,27.4,29.4,25,29.4z M22.3,32.7c0-0.8,2.1-1.2,2.7-1.2s2.7,0.4,2.7,1.2c0,0.4-2.2,2.7-2.7,2.7S22.3,33.2,22.3,32.7z"/>
	</g>
</g>
<g id="XMLID_2_">
</g>
<g id="XMLID_8_">
</g>
<g id="XMLID_9_">
</g>
<g id="XMLID_10_">
</g>
<g id="XMLID_11_">
</g>
<g id="XMLID_12_">
</g>
</svg>
