<?xml version="1.0" encoding="utf-8"?>
<!-- Generator: Adobe Illustrator 19.0.0, SVG Export Plug-In . SVG Version: 6.00 Build 0)  -->
<svg version="1.1" id="Capa_1" xmlns="http://www.w3.org/2000/svg" xmlns:xlink="http://www.w3.org/1999/xlink" x="0px" y="0px"
	 viewBox="-144 82 50 50" style="enable-background:new -144 82 50 50;" xml:space="preserve">
<style type="text/css">
	.st0{fill:#E62F31;}
	.st1{fill:#FFFFFF;}
</style>
<circle id="XMLID_3_" class="st0" cx="-119" cy="107" r="25"/>
<g id="XMLID_1_">
</g>
<g id="XMLID_7_">
</g>
<g id="XMLID_8_">
</g>
<g id="XMLID_9_">
</g>
<g id="XMLID_10_">
</g>
<g id="XMLID_11_">
</g>
<g>
	<path class="st1" d="M-133,102c0,3.7,1.5,7.2,4.1,9.9l-2.3,2.3c-3.2-3.2-5-7.6-5-12.2s1.8-8.9,5-12.2l2.3,2.3
		C-131.5,94.7-133,98.2-133,102z M-123.9,97l-2.3-2.3c-1.9,1.9-3,4.5-3,7.2c0,2.7,1.1,5.3,3,7.2l2.3-2.3c-1.3-1.3-2-3.1-2-4.9
		C-126,100.1-125.3,98.4-123.9,97z M-106.9,89.8l-2.3,2.3c2.6,2.6,4.1,6.1,4.1,9.9s-1.5,7.2-4.1,9.9l2.3,2.3c3.2-3.2,5-7.6,5-12.2
		C-101.8,97.4-103.6,93.1-106.9,89.8z M-119,98.7c-1.8,0-3.2,1.4-3.2,3.2c0,1.2,0.7,2.2,1.6,2.8v19.4h3.2v-19.4
		c1-0.6,1.6-1.6,1.6-2.8C-115.8,100.2-117.2,98.7-119,98.7z M-111.8,94.8l-2.3,2.3c1.3,1.3,2,3.1,2,4.9c0,1.9-0.7,3.6-2,4.9l2.3,2.3
		c1.9-1.9,3-4.5,3-7.2S-109.9,96.7-111.8,94.8z"/>
</g>
</svg>
