<?xml version="1.0" encoding="utf-8"?>
<!-- Generator: Adobe Illustrator 19.0.0, SVG Export Plug-In . SVG Version: 6.00 Build 0)  -->
<svg version="1.1" id="Capa_1" xmlns="http://www.w3.org/2000/svg" xmlns:xlink="http://www.w3.org/1999/xlink" x="0px" y="0px"
	 viewBox="0 0 50 50" style="enable-background:new 0 0 50 50;" xml:space="preserve">
<style type="text/css">
	.st0{fill:#E5251F;}
	.st1{fill:#FFFFFF;}
</style>
<g>
	<rect id="XMLID_2_" class="st0" width="50" height="50"/>
	<g id="XMLID_1_">
		<path id="XMLID_4_" class="st1" d="M35.9,24.8v10.9c0,1-0.8,1.8-1.8,1.8H15.9c-1,0-1.8-0.8-1.8-1.8V24.8c0-1,0.8-1.8,1.8-1.8h0.6
			v-6.1c0-4.7,3.8-8.5,8.5-8.5s8.5,3.8,8.5,8.5c0,0.7-0.5,1.2-1.2,1.2h-1.2c-0.7,0-1.2-0.5-1.2-1.2c0-2.7-2.2-4.9-4.9-4.9
			c-2.7,0-4.9,2.2-4.9,4.9V23h14C35.1,23,35.9,23.8,35.9,24.8z"/>
	</g>
</g>
<g id="XMLID_3_">
</g>
<g id="XMLID_6_">
</g>
<g id="XMLID_7_">
</g>
<g id="XMLID_8_">
</g>
<g id="XMLID_9_">
</g>
<g id="XMLID_10_">
</g>
</svg>
