<?xml version="1.0" encoding="utf-8"?>
<!-- Generator: Adobe Illustrator 19.0.0, SVG Export Plug-In . SVG Version: 6.00 Build 0)  -->
<svg version="1.1" id="Capa_1" xmlns="http://www.w3.org/2000/svg" xmlns:xlink="http://www.w3.org/1999/xlink" x="0px" y="0px"
	 viewBox="0 0 50 50" style="enable-background:new 0 0 50 50;" xml:space="preserve">
<style type="text/css">
	.st0{fill:#E62F31;}
	.st1{fill:#FFFFFF;}
</style>
<g id="XMLID_2_">
	<circle id="XMLID_1_" class="st0" cx="25" cy="25" r="25"/>
	<g id="fa-support_3_">
		<path id="XMLID_4_" class="st1" d="M39.4,25.3c0,8-6.4,14.4-14.4,14.4c-8,0-14.4-6.4-14.4-14.4S17.1,10.9,25,10.9
			C33,10.9,39.4,17.4,39.4,25.3z M17.2,28c-0.3-0.9-0.4-1.8-0.4-2.7c0-0.9,0.2-1.8,0.4-2.7l-3.1-3.1c-0.9,1.7-1.4,3.7-1.4,5.8
			c0,2.1,0.5,4.1,1.4,5.8L17.2,28z M31.2,25.3c0-3.4-2.8-6.2-6.2-6.2c-3.4,0-6.2,2.8-6.2,6.2c0,3.4,2.8,6.2,6.2,6.2
			C28.4,31.5,31.2,28.7,31.2,25.3z M19.2,14.4l3.1,3.1c0.9-0.3,1.8-0.4,2.7-0.4c0.9,0,1.8,0.2,2.7,0.4l3.1-3.1
			C29.1,13.5,27.1,13,25,13C22.9,13,20.9,13.5,19.2,14.4z M30.8,36.2l-3.1-3.1c-0.9,0.3-1.7,0.5-2.7,0.5c-0.9,0-1.8-0.2-2.7-0.5
			l-3.1,3.1c1.7,0.9,3.7,1.4,5.8,1.4C27.1,37.7,29.1,37.1,30.8,36.2z M35.9,31.1c0.9-1.7,1.4-3.7,1.4-5.8c0-2.1-0.5-4.1-1.4-5.8
			l-3.1,3.1c0.3,0.9,0.5,1.8,0.5,2.7s-0.2,1.8-0.5,2.7L35.9,31.1z"/>
	</g>
</g>
<g id="XMLID_3_">
</g>
<g id="XMLID_11_">
</g>
<g id="XMLID_12_">
</g>
<g id="XMLID_13_">
</g>
<g id="XMLID_14_">
</g>
<g id="XMLID_15_">
</g>
</svg>
