<?xml version="1.0" encoding="utf-8"?>
<!-- Generator: Adobe Illustrator 19.0.0, SVG Export Plug-In . SVG Version: 6.00 Build 0)  -->
<svg version="1.1" id="Capa_1" xmlns="http://www.w3.org/2000/svg" xmlns:xlink="http://www.w3.org/1999/xlink" x="0px" y="0px"
	 viewBox="0 0 50 50" style="enable-background:new 0 0 50 50;" xml:space="preserve">
<style type="text/css">
	.st0{fill:#E62F31;}
	.st1{fill:#FFFFFF;}
</style>
<g>
	<circle id="XMLID_1_" class="st0" cx="25" cy="25" r="25"/>
	<g id="fa-support_5_">
		<path id="XMLID_3_" class="st1" d="M32.4,35.2c0,1.3-1.1,2.5-2.5,2.5h-9.8c-1.3,0-2.5-1.1-2.5-2.5V15.5c0-1.3,1.1-2.5,2.5-2.5h9.8
			c1.3,0,2.5,1.1,2.5,2.5V35.2z M30.5,18.6c0-0.3-0.3-0.6-0.6-0.6h-9.8c-0.3,0-0.6,0.3-0.6,0.6v13.5c0,0.3,0.3,0.6,0.6,0.6h9.8
			c0.3,0,0.6-0.3,0.6-0.6V18.6z M26.5,15.5h-3.1c-0.2,0-0.3,0.1-0.3,0.3s0.1,0.3,0.3,0.3h3.1c0.2,0,0.3-0.1,0.3-0.3
			S26.7,15.5,26.5,15.5z M25,33.7c-0.8,0-1.5,0.7-1.5,1.5s0.7,1.5,1.5,1.5s1.5-0.7,1.5-1.5S25.8,33.7,25,33.7z"/>
	</g>
</g>
<g id="XMLID_2_">
</g>
<g id="XMLID_8_">
</g>
<g id="XMLID_9_">
</g>
<g id="XMLID_10_">
</g>
<g id="XMLID_11_">
</g>
<g id="XMLID_12_">
</g>
</svg>
