<?xml version="1.0" encoding="utf-8"?>
<!-- Generator: Adobe Illustrator 18.0.0, SVG Export Plug-In . SVG Version: 6.00 Build 0)  -->
<!DOCTYPE svg PUBLIC "-//W3C//DTD SVG 1.1//EN" "http://www.w3.org/Graphics/SVG/1.1/DTD/svg11.dtd" [
	<!ENTITY ns_flows "http://ns.adobe.com/Flows/1.0/">
	<!ENTITY ns_extend "http://ns.adobe.com/Extensibility/1.0/">
	<!ENTITY ns_ai "http://ns.adobe.com/AdobeIllustrator/10.0/">
	<!ENTITY ns_graphs "http://ns.adobe.com/Graphs/1.0/">
]>
<svg version="1.1" id="Layer_1" xmlns:x="&ns_extend;" xmlns:i="&ns_ai;" xmlns:graph="&ns_graphs;"
	 xmlns="http://www.w3.org/2000/svg" xmlns:xlink="http://www.w3.org/1999/xlink" xmlns:a="http://ns.adobe.com/AdobeSVGViewerExtensions/3.0/"
	 x="0px" y="0px" viewBox="0 0 175.3 116" enable-background="new 0 0 175.3 116" xml:space="preserve">
<g opacity="0.9">
	<g>
		<path fill="#09538D" d="M80.6,77.9c1,3.5-0.5,7.3-3.8,8.9c-2.1,1-4.4,1.6-6.6,2.2c-0.4,0.1-1-0.4-1.6-0.7c0.3-0.5,0.5-1.3,0.9-1.5
			c1.5-0.6,3-1,4.5-1.5c3.4-1.1,4.8-3.6,4.1-7.1c-0.1-0.6-0.4-1.2-0.5-1.8c-0.2-0.9-0.6-1.2-1.6-1.2c-4.8,0.2-8.9-3.4-9.1-8.2
			c-0.1-1.9,0.6-3.8,0.9-5.9c-2.6-1.4-5.5-2.9-8.4-4.5c-1.4-0.8-1.6-1.1-0.8-2.6c3.5-6.6,7-13.1,10.4-19.6c0.8-1.6,1.2-1.7,2.8-0.8
			c4,2.1,8,4.2,11.9,6.3c9.2,4.9,18.4,9.8,27.6,14.7c1.8,1,1.9,1.2,0.9,3.1c-0.6,1.2-1.3,2.3-2,3.6c1.5,0.8,2.7,1.5,4.1,2.1
			c0.4,0.2,1,0.2,1.4,0.1c2.9-1.4,5.6-1,8.1,0.9c0.1,0.1,0.2,0.1,0.2,0.1c1.1,0.5,1.3,1.2,0.7,2.3c-2.8,5.1-5.5,10.3-8.2,15.4
			c-0.5,1-1.2,1.3-2.2,0.7c-0.3-0.2-0.5-0.3-0.8-0.4c-2.8-0.9-4.3-2.8-4.8-5.7c-0.1-0.5-0.4-1.1-0.8-1.3c-1.3-0.8-2.6-1.5-4.1-2.4
			c-0.7,1.4-1.3,2.7-2,4c-0.8,1.5-1.2,1.6-2.7,0.9c-4.7-2.5-9.4-5-14.1-7.5C85,70.2,84.6,70,84.5,70c-1.6,1.7-3.1,3.2-4.8,5
			C79.9,75.7,80.3,76.8,80.6,77.9z M100,75.1c3.2-6.1,6.5-12.3,9.8-18.4C97,50,84.1,43.1,71.2,36.2c-3.2,6.1-6.5,12.2-9.8,18.4
			C74.3,61.5,87.2,68.3,100,75.1z M117.4,65.4c-3.2,1.9-5.3-1-7.8-1.8c-1.3,2.5-2.7,5-4,7.5c2,1.6,5.7,1.7,5.9,5.4
			C113.5,72.8,115.4,69.2,117.4,65.4z M70.4,69.7c1.4,2.2,3.5,3.3,6.1,3c2.5-0.2,4.2-1.6,5.2-3.8c-3.8-2-7.5-4-11.3-6
			C69.1,65.1,69,67.4,70.4,69.7z M122.3,66.1c-0.4-0.1-1-0.3-1.4-0.4c-2.4,4.5-4.8,9.1-7.3,13.8c0.2,0.1,0.7,0.4,1.3,0.7
			C117.3,75.4,119.7,70.9,122.3,66.1z"/>
		<path fill="#09538D" d="M74.9,57.2c0.4,0.3,0.7,0.7,1.1,0.9c7.1,3.8,14.1,7.5,21.2,11.3c0.8,0.4,1.5,0.5,2-0.3
			c0.5-0.9,0-1.5-0.8-1.9c-7.1-3.8-14.2-7.6-21.3-11.3c-0.5-0.2-1.2-0.1-1.7,0.1C75.1,56.1,75,56.7,74.9,57.2z"/>
		<path fill="#09538D" d="M71.5,55.3c0.9-0.3,1.3-1.5,0.5-2c-1.1-0.7-2.3-1.3-3.5-1.8c-0.3-0.1-0.9,0.3-1.2,0.7
			c-0.2,0.3-0.1,1.1,0.1,1.2c1.1,0.7,2.3,1.3,3.5,2C71.2,55.4,71.4,55.3,71.5,55.3z"/>
	</g>
	<g>
		<g>
			<path fill="#09538D" d="M140.8,72.3c-0.4,0-0.7-0.2-0.9-0.3c-2.3-1.3-4.2-3.1-5.9-5.7c-2.3-3.6-3.8-7.6-4.4-12.1
				c-0.1-0.6-0.1-1.3-0.2-1.9c0-0.4,0-0.7-0.1-1.1c-0.1-0.9,0.3-1.5,1.1-1.8c1.5-0.5,3-1,4.5-1.6c1.7-0.6,3.5-1.2,5.2-1.8
				c0.4-0.1,0.9-0.1,1.3,0c1.7,0.6,3.5,1.2,5.2,1.8c1.5,0.5,3,1,4.5,1.6c1.2,0.4,1.2,1.4,1.2,1.8c0,0.1,0,0.2,0,0.2l0,0.1
				c-0.2,4.1-1.2,7.8-2.9,11.5c-1.5,3.3-3.4,5.7-5.7,7.5c-0.4,0.3-0.8,0.6-1.2,0.9c-0.2,0.2-0.5,0.3-0.7,0.5
				C141.5,72.2,141.2,72.3,140.8,72.3z M131.3,51.2c0,0.3,0,0.6,0.1,0.9c0,0.6,0.1,1.2,0.2,1.7c0.6,4.2,2,8,4.1,11.3
				c1.5,2.3,3.1,3.9,5.1,5c0.2-0.1,0.4-0.3,0.6-0.4c0.4-0.2,0.7-0.5,1.1-0.7c2.1-1.6,3.7-3.8,5.1-6.8c1.6-3.5,2.5-7,2.7-10.7
				c0-0.1,0-0.2,0-0.3c-1.5-0.5-2.9-1-4.3-1.5c-1.7-0.6-3.5-1.2-5.2-1.8c-1.8,0.6-3.5,1.2-5.2,1.8C134.2,50.2,132.7,50.7,131.3,51.2
				z"/>
		</g>
	</g>
	<path fill="#09538D" d="M46.3,71.3c0.2,0.3,0.5,0.5,0.7,0.8c-3,3.4-8.9,5-14.1,2.7c-5.5-2.5-8.4-8.2-7.3-14.1
		c1.1-5.6,6.2-9.9,11.8-10.1c6.6-0.3,12.6,4.7,13.3,11.5c0.3-0.3,0.5-0.5,0.8-0.8c0.3,0.3,0.5,0.5,0.8,0.8c-0.7,0.7-1.4,1.4-2.1,2.1
		c-0.7-0.7-1.4-1.4-2.2-2.2c0.2-0.2,0.5-0.4,0.8-0.7c0.2,0.1,0.4,0.3,0.6,0.5c0-2.9-2.6-7.9-7.9-9.5c-5.1-1.6-10.7,0.6-13.4,5.3
		c-2.7,4.7-1.7,10.6,2.4,14.3C34.5,75.4,41.5,76,46.3,71.3z"/>
	<path fill="#09538D" d="M42.8,70.1c-3.3,0-6.5,0-9.7,0c0-2.8,0-5.6,0-8.4c0.3,0,0.5-0.1,0.9-0.1c0-0.5,0-1,0-1.5
		c0-2.2,1.8-3.9,4-3.9c2.2,0,3.9,1.7,4,3.9c-0.4,0-0.7,0-1.1,0c-0.5-2-1.8-3-3.4-2.7c-1.8,0.4-2.6,1.7-2.2,4.2c2.5,0,5,0,7.6,0
		C42.8,64.5,42.8,67.3,42.8,70.1z M34.3,68.9c2.5,0,4.9,0,7.4,0c0-2,0-4,0-6c-2.5,0-4.9,0-7.4,0C34.3,64.9,34.3,66.9,34.3,68.9z"/>
</g>
</svg>
