<?xml version="1.0" encoding="utf-8"?>
<!-- Generator: Adobe Illustrator 19.0.0, SVG Export Plug-In . SVG Version: 6.00 Build 0)  -->
<svg version="1.1" id="Layer_1" xmlns="http://www.w3.org/2000/svg" xmlns:xlink="http://www.w3.org/1999/xlink" x="0px" y="0px"
	 viewBox="-355 177 248 187" style="enable-background:new -355 177 248 187;" xml:space="preserve">
<style type="text/css">
	.st0{fill:#333333;}
</style>
<g>
	<g>
		<path class="st0" d="M-208.3,310.7h-70.1c-0.6,0-1.2-0.5-1.2-1.2v-60.2c0-0.6,0.5-1.2,1.2-1.2h20.2c0.2,0,0.4,0.2,0.4,0.4
			c0,0.2-0.2,0.4-0.4,0.4h-20.2c-0.1,0-0.3,0.1-0.3,0.3v60.2c0,0.1,0.1,0.3,0.3,0.3h70.1c0.1,0,0.3-0.1,0.3-0.3v-60.1
			c0-0.1-0.1-0.3-0.3-0.3h-20.2c-0.2,0-0.4-0.2-0.4-0.4c0-0.2,0.2-0.4,0.4-0.4h20.2c0.6,0,1.2,0.5,1.2,1.2v60.2
			C-207.1,310.2-207.7,310.7-208.3,310.7z"/>
	</g>
	<g>
		<path class="st0" d="M-258.5,274.6h-8.9v-8.9h8.9V274.6z M-266.5,273.7h7.1v-7.1h-7.1V273.7z"/>
	</g>
	<g>
		<path class="st0" d="M-258.5,287h-8.9v-8.9h8.9V287z M-266.5,286.1h7.1V279h-7.1V286.1z"/>
	</g>
	<g>
		<path class="st0" d="M-213,304.9h-60.7v-51.2h15.5c0.2,0,0.4,0.2,0.4,0.4c0,0.2-0.2,0.4-0.4,0.4h-14.6v49.4h58.9v-49.4h-14.6
			c-0.2,0-0.4-0.2-0.4-0.4c0-0.2,0.2-0.4,0.4-0.4h15.5V304.9z"/>
	</g>
	<g>
		<path class="st0" d="M-220.6,271.2h-35.7c-0.2,0-0.4-0.2-0.4-0.4c0-0.2,0.2-0.4,0.4-0.4h35.7c0.2,0,0.4,0.2,0.4,0.4
			C-220.2,271-220.4,271.2-220.6,271.2z"/>
	</g>
	<g>
		<path class="st0" d="M-220.6,283.3h-35.7c-0.2,0-0.4-0.2-0.4-0.4c0-0.2,0.2-0.4,0.4-0.4h35.7c0.2,0,0.4,0.2,0.4,0.4
			S-220.4,283.3-220.6,283.3z"/>
	</g>
	<g>
		<path class="st0" d="M-262.3,272h-0.7l-2.3-2.7c-0.2-0.2-0.1-0.5,0.1-0.6c0.2-0.2,0.5-0.1,0.6,0.1l1.9,2.3l6.5-6.3
			c0.2-0.2,0.5-0.2,0.6,0c0.2,0.2,0.2,0.5,0,0.6L-262.3,272z"/>
	</g>
	<g>
		<path class="st0" d="M-262.3,284.8h-0.7l-2.3-2.7c-0.2-0.2-0.1-0.5,0.1-0.6c0.2-0.2,0.5-0.1,0.6,0.1l1.9,2.3l6.5-6.3
			c0.2-0.2,0.5-0.2,0.6,0c0.2,0.2,0.2,0.5,0,0.6L-262.3,284.8z"/>
	</g>
	<g>
		<path class="st0" d="M-258.5,300h-8.9v-8.9h8.9V300z M-266.5,299.1h7.1V292h-7.1V299.1z"/>
	</g>
	<g>
		<path class="st0" d="M-220.6,296.2h-35.7c-0.2,0-0.4-0.2-0.4-0.4s0.2-0.4,0.4-0.4h35.7c0.2,0,0.4,0.2,0.4,0.4
			S-220.4,296.2-220.6,296.2z"/>
	</g>
	<g>
		<path class="st0" d="M-262.3,297.8h-0.7l-2.3-2.7c-0.2-0.2-0.1-0.5,0.1-0.6c0.2-0.2,0.5-0.1,0.6,0.1l1.9,2.3l6.5-6.3
			c0.2-0.2,0.5-0.2,0.6,0c0.2,0.2,0.2,0.5,0,0.6L-262.3,297.8z"/>
	</g>
	<g>
		<path class="st0" d="M-228.5,258.9h-29.7l-0.4-0.4v-24l0.4-0.4h29.7l0.4,0.4v24L-228.5,258.9z M-257.7,258h28.8v-23.1h-28.8V258z"
			/>
	</g>
	<g>
		<path class="st0" d="M-244.8,246.9c-0.1,0-0.2,0-0.2-0.1c-1.1-0.7-1.8-1.9-1.8-3.2c0-2.1,1.7-3.8,3.8-3.8s3.8,1.7,3.8,3.8
			c0,1.3-0.6,2.5-1.7,3.2c-0.2,0.1-0.5,0.1-0.6-0.1s-0.1-0.5,0.1-0.6c0.8-0.5,1.3-1.5,1.3-2.4c0-1.6-1.3-2.9-2.9-2.9
			s-2.9,1.3-2.9,2.9c0,1,0.5,1.9,1.3,2.5c0.2,0.1,0.3,0.4,0.1,0.6C-244.5,246.8-244.7,246.9-244.8,246.9z"/>
	</g>
	<g>
		<path class="st0" d="M-241.2,255.3h-3.6l-0.4-0.4v-8.4c0-0.2,0.2-0.4,0.4-0.4s0.4,0.2,0.4,0.4v7.9h2.7v-7.9c0-0.2,0.2-0.4,0.4-0.4
			c0.2,0,0.4,0.2,0.4,0.4v8.4L-241.2,255.3z"/>
	</g>
	<g>
		<path class="st0" d="M-231.8,234.9c-0.2,0-0.4-0.2-0.4-0.4v-7.6c0-2.9-2.3-5.2-5.2-5.2h-10.8c-2.9,0-5.2,2.3-5.2,5.2v7.6
			c0,0.2-0.2,0.4-0.4,0.4s-0.4-0.2-0.4-0.4v-7.6c0-3.4,2.8-6.1,6.1-6.1h10.8c3.4,0,6.1,2.8,6.1,6.1v7.6
			C-231.3,234.7-231.6,234.9-231.8,234.9z"/>
	</g>
	<g>
		<path class="st0" d="M-234.9,234.9c-0.2,0-0.4-0.2-0.4-0.4v-6.9c0-1.6-1.3-2.8-2.8-2.8h-9.4c-1.6,0-2.8,1.3-2.8,2.8v6.9
			c0,0.2-0.2,0.4-0.4,0.4c-0.2,0-0.4-0.2-0.4-0.4v-6.9c0-2.1,1.7-3.7,3.7-3.7h9.4c2.1,0,3.7,1.7,3.7,3.7v6.9
			C-234.5,234.7-234.7,234.9-234.9,234.9z"/>
	</g>
</g>
</svg>
