<?xml version="1.0" encoding="utf-8"?>
<!-- Generator: Adobe Illustrator 15.0.0, SVG Export Plug-In . SVG Version: 6.00 Build 0)  -->
<!DOCTYPE svg PUBLIC "-//W3C//DTD SVG 1.1//EN" "http://www.w3.org/Graphics/SVG/1.1/DTD/svg11.dtd">
<svg version="1.1" id="Layer_1" xmlns="http://www.w3.org/2000/svg" xmlns:xlink="http://www.w3.org/1999/xlink" x="0px" y="0px"
	 width="340px" height="300px" viewBox="0 0 340 300" enable-background="new 0 0 340 300" xml:space="preserve">
<rect fill="none" width="340" height="300"/>
<g>
	<path fill="#231F20" d="M62.756,208.472V65.695c0-10.412,8.443-18.854,18.855-18.854h175.572c10.414,0,18.855,8.442,18.855,18.854
		v142.776h9.43V65.695c0-15.595-12.691-28.282-28.285-28.282H81.611c-15.597,0-28.284,12.688-28.284,28.282v142.776H62.756z"/>
	<path fill="#231F20" d="M329.768,249.363c0,5.149-4.173,9.323-9.322,9.323H18.354c-5.152,0-9.325-4.174-9.325-9.323v-27.456
		c0-5.149,4.173-9.325,9.325-9.325h302.092c5.149,0,9.322,4.176,9.322,9.325V249.363z"/>
</g>
<g>
	<path fill="#231F20" d="M155.467,80.54c-1.366,1.363-2.491,2.876-3.387,4.483l4.53,4.528c0.692-1.724,1.735-3.339,3.13-4.736
		c5.525-5.521,14.48-5.521,20.001,0c1.364,1.364,2.392,2.938,3.082,4.618l4.521-4.516c-0.882-1.569-1.991-3.045-3.324-4.378
		C176.135,72.655,163.35,72.655,155.467,80.54z"/>
	<path fill="#231F20" d="M145.988,71.064c-1.341,1.341-2.545,2.762-3.609,4.254l3.747,3.752c1.021-1.525,2.204-2.975,3.548-4.322
		c11.082-11.08,29.053-11.08,40.135,0c1.317,1.319,2.479,2.73,3.48,4.22l3.746-3.742c-1.049-1.461-2.229-2.851-3.539-4.161
		C180.375,57.945,159.106,57.945,145.988,71.064z"/>
</g>
<g>
	<g>
		<path fill="#CE6628" d="M54.389,239.664v0.624c0,2.816-0.568,4.847-1.705,6.09c-1.137,1.244-2.997,1.866-5.581,1.866h-1.798
			c-2.807,0-4.773-0.651-5.901-1.953s-1.691-3.593-1.691-6.874v-4.485c0-3.281,0.563-5.572,1.691-6.874
			c1.128-1.301,3.095-1.952,5.901-1.952h1.465c2.788,0,4.733,0.571,5.835,1.713c1.101,1.143,1.651,3.155,1.651,6.039v0.421h-5.302
			v-0.392c0-0.987-0.209-1.685-0.626-2.091s-1.146-0.609-2.185-0.609c-1.146,0-1.909,0.242-2.291,0.726
			c-0.382,0.484-0.573,1.65-0.573,3.499v3.557c0,1.839,0.191,2.997,0.573,3.477c0.382,0.479,1.146,0.719,2.291,0.719
			c1.074,0,1.816-0.221,2.225-0.661s0.612-1.222,0.612-2.344v-0.494H54.389z"/>
		<path fill="#CE6628" d="M57.612,247.982v-21.616h14.906v4.82h-9.591v3.745h9.311v4.166h-9.311v4.065h9.804v4.819H57.612z"/>
		<path fill="#CE6628" d="M76.354,247.982v-21.616h7.993c3.055,0,5.15,0.438,6.287,1.314s1.705,2.412,1.705,4.609v1.741
			c0,1.462-0.324,2.606-0.973,3.434s-1.607,1.328-2.877,1.503c1.341,0.241,2.317,0.726,2.931,1.451
			c0.612,0.726,0.919,1.762,0.919,3.106v4.457h-5.435v-3.891c0-0.919-0.162-1.551-0.486-1.895s-0.926-0.516-1.806-0.516H81.67v6.301
			H76.354z M81.67,236.805h2.971c0.888,0,1.491-0.17,1.812-0.509c0.319-0.338,0.479-0.963,0.479-1.872v-0.828
			c0-0.919-0.162-1.551-0.486-1.894c-0.324-0.344-0.926-0.516-1.805-0.516H81.67V236.805z"/>
		<path fill="#CE6628" d="M111.975,239.664v0.624c0,2.816-0.568,4.847-1.705,6.09c-1.137,1.244-2.997,1.866-5.581,1.866h-1.798
			c-2.807,0-4.773-0.651-5.901-1.953s-1.691-3.593-1.691-6.874v-4.485c0-3.281,0.563-5.572,1.691-6.874
			c1.128-1.301,3.095-1.952,5.901-1.952h1.465c2.788,0,4.733,0.571,5.835,1.713c1.101,1.143,1.651,3.155,1.651,6.039v0.421h-5.302
			v-0.392c0-0.987-0.209-1.685-0.626-2.091s-1.146-0.609-2.185-0.609c-1.146,0-1.909,0.242-2.291,0.726
			c-0.382,0.484-0.573,1.65-0.573,3.499v3.557c0,1.839,0.191,2.997,0.573,3.477c0.382,0.479,1.146,0.719,2.291,0.719
			c1.074,0,1.816-0.221,2.225-0.661s0.612-1.222,0.612-2.344v-0.494H111.975z"/>
		<path fill="#CE6628" d="M114.56,234.932c0-3.281,0.563-5.572,1.69-6.874c1.127-1.301,3.093-1.952,5.897-1.952h2.606
			c2.813,0,4.786,0.653,5.918,1.96c1.131,1.307,1.697,3.595,1.697,6.866v4.485c0,3.271-0.566,5.561-1.697,6.867
			c-1.132,1.307-3.104,1.96-5.918,1.96h-2.606c-2.805,0-4.771-0.651-5.897-1.953s-1.69-3.593-1.69-6.874V234.932z M119.994,235.411
			v3.557c0,1.849,0.19,3.01,0.571,3.483c0.382,0.475,1.18,0.712,2.394,0.712h0.983c1.215,0,2.017-0.242,2.406-0.727
			c0.391-0.483,0.586-1.64,0.586-3.469v-3.557c0-1.839-0.195-3.003-0.586-3.492c-0.39-0.488-1.191-0.732-2.406-0.732h-0.983
			c-1.205,0-2.001,0.242-2.387,0.726C120.187,232.396,119.994,233.563,119.994,235.411z"/>
		<path fill="#CE6628" d="M145.343,247.982v-21.616h14.906v4.82h-9.591v3.745h9.311v4.166h-9.311v4.065h9.804v4.819H145.343z"/>
		<path fill="#CE6628" d="M164.139,247.982v-21.616h5.368v16.594h8.872v5.022H164.139z"/>
		<path fill="#CE6628" d="M180.776,247.982v-21.616h14.906v4.82h-9.591v3.745h9.311v4.166h-9.311v4.065h9.804v4.819H180.776z
			 M192.232,219.181l-4.169,5.371h-1.892l2.624-5.371H192.232z"/>
		<path fill="#CE6628" d="M215.557,239.664v0.624c0,2.816-0.568,4.847-1.705,6.09c-1.137,1.244-2.997,1.866-5.581,1.866h-1.798
			c-2.807,0-4.773-0.651-5.901-1.953s-1.691-3.593-1.691-6.874v-4.485c0-3.281,0.563-5.572,1.691-6.874
			c1.128-1.301,3.095-1.952,5.901-1.952h1.465c2.788,0,4.733,0.571,5.835,1.713c1.101,1.143,1.651,3.155,1.651,6.039v0.421h-5.302
			v-0.392c0-0.987-0.209-1.685-0.626-2.091s-1.146-0.609-2.185-0.609c-1.146,0-1.909,0.242-2.291,0.726
			c-0.382,0.484-0.573,1.65-0.573,3.499v3.557c0,1.839,0.191,2.997,0.573,3.477c0.382,0.479,1.146,0.719,2.291,0.719
			c1.074,0,1.816-0.221,2.225-0.661s0.612-1.222,0.612-2.344v-0.494H215.557z"/>
		<path fill="#CE6628" d="M222.67,247.982v-16.796h-5.102v-4.82h15.559v4.82h-5.075v16.796H222.67z"/>
		<path fill="#CE6628" d="M235.964,247.982v-21.616h7.993c3.055,0,5.15,0.438,6.287,1.314s1.705,2.412,1.705,4.609v1.741
			c0,1.462-0.324,2.606-0.973,3.434s-1.607,1.328-2.877,1.503c1.341,0.241,2.317,0.726,2.931,1.451
			c0.612,0.726,0.919,1.762,0.919,3.106v4.457h-5.435v-3.891c0-0.919-0.162-1.551-0.486-1.895s-0.926-0.516-1.806-0.516h-2.943
			v6.301H235.964z M241.279,236.805h2.971c0.888,0,1.491-0.17,1.812-0.509c0.319-0.338,0.479-0.963,0.479-1.872v-0.828
			c0-0.919-0.162-1.551-0.486-1.894c-0.324-0.344-0.926-0.516-1.805-0.516h-2.971V236.805z"/>
		<path fill="#CE6628" d="M255.705,247.982v-21.616h5.368v21.616H255.705z"/>
		<path fill="#CE6628" d="M281.294,239.664v0.624c0,2.816-0.568,4.847-1.705,6.09c-1.137,1.244-2.997,1.866-5.581,1.866h-1.798
			c-2.807,0-4.773-0.651-5.901-1.953s-1.691-3.593-1.691-6.874v-4.485c0-3.281,0.563-5.572,1.691-6.874
			c1.128-1.301,3.095-1.952,5.901-1.952h1.465c2.788,0,4.733,0.571,5.835,1.713c1.101,1.143,1.651,3.155,1.651,6.039v0.421h-5.302
			v-0.392c0-0.987-0.209-1.685-0.626-2.091s-1.146-0.609-2.185-0.609c-1.146,0-1.909,0.242-2.291,0.726
			c-0.382,0.484-0.573,1.65-0.573,3.499v3.557c0,1.839,0.191,2.997,0.573,3.477c0.382,0.479,1.146,0.719,2.291,0.719
			c1.074,0,1.816-0.221,2.225-0.661s0.612-1.222,0.612-2.344v-0.494H281.294z"/>
		<path fill="#CE6628" d="M283.879,234.932c0-3.281,0.563-5.572,1.69-6.874c1.127-1.301,3.093-1.952,5.897-1.952h2.606
			c2.813,0,4.786,0.653,5.918,1.96c1.131,1.307,1.697,3.595,1.697,6.866v4.485c0,3.271-0.566,5.561-1.697,6.867
			c-1.132,1.307-3.104,1.96-5.918,1.96h-2.606c-2.805,0-4.771-0.651-5.897-1.953s-1.69-3.593-1.69-6.874V234.932z M289.313,235.411
			v3.557c0,1.849,0.19,3.01,0.571,3.483c0.382,0.475,1.18,0.712,2.394,0.712h0.983c1.215,0,2.017-0.242,2.406-0.727
			c0.391-0.483,0.586-1.64,0.586-3.469v-3.557c0-1.839-0.195-3.003-0.586-3.492c-0.39-0.488-1.191-0.732-2.406-0.732h-0.983
			c-1.205,0-2.001,0.242-2.387,0.726C289.506,232.396,289.313,233.563,289.313,235.411z"/>
	</g>
</g>
<g>
	<g>
		<path fill="#231F20" d="M231.325,196.025l-57.435-99.184c-0.904-1.806-2.402-2.715-3.912-2.715c-1.503,0-3.003,0.909-3.91,2.715
			l-57.132,98.881c-2.104,3.612,0,6.637,4.51,6.637h113.675C231.325,202.359,233.437,199.335,231.325,196.025z M114.344,196.623
			l55.936-94.654l55.636,94.654H114.344z"/>
		<polygon fill="#231F20" points="165.172,120.357 153.291,162.315 170.994,157.003 167.574,176.132 163.063,175.526 
			167.277,191.501 176.599,177.631 172.084,177.033 181.106,145.081 163.316,151.628 172.459,120.357 		"/>
	</g>
	<path fill="#231F20" d="M269.302,124.059c0,2.052-1.664,3.708-3.71,3.708h-67.407c-2.049,0-3.708-1.656-3.708-3.708l0,0
		c0-2.043,1.659-3.701,3.708-3.701h67.407C267.638,120.357,269.302,122.016,269.302,124.059L269.302,124.059z"/>
	<path fill="#231F20" d="M269.302,145.244c0,2.042-1.664,3.703-3.71,3.703h-55.055c-2.048,0-3.707-1.661-3.707-3.703l0,0
		c0-2.048,1.659-3.715,3.707-3.715h55.055C267.638,141.529,269.302,143.196,269.302,145.244L269.302,145.244z"/>
	<path fill="#231F20" d="M269.302,165.876c0,2.054-1.664,3.716-3.71,3.716h-43.059c-2.044,0-3.702-1.662-3.702-3.716l0,0
		c0-2.042,1.658-3.7,3.702-3.7h43.059C267.638,162.176,269.302,163.834,269.302,165.876L269.302,165.876z"/>
	<path fill="#231F20" d="M69.269,124.059c0,2.052,1.661,3.708,3.703,3.708h67.414c2.043,0,3.708-1.656,3.708-3.708l0,0
		c0-2.043-1.665-3.701-3.708-3.701H72.972C70.93,120.357,69.269,122.016,69.269,124.059L69.269,124.059z"/>
	<path fill="#231F20" d="M69.269,145.244c0,2.042,1.661,3.703,3.703,3.703h55.058c2.052,0,3.709-1.661,3.709-3.703l0,0
		c0-2.048-1.657-3.715-3.709-3.715H72.972C70.93,141.529,69.269,143.196,69.269,145.244L69.269,145.244z"/>
	<path fill="#231F20" d="M69.269,165.876c0,2.054,1.661,3.716,3.703,3.716h43.06c2.052,0,3.709-1.662,3.709-3.716l0,0
		c0-2.042-1.657-3.7-3.709-3.7h-43.06C70.93,162.176,69.269,163.834,69.269,165.876L69.269,165.876z"/>
</g>
</svg>
