<?xml version="1.0" encoding="iso-8859-1"?>
<!-- Generator: Adobe Illustrator 19.0.0, SVG Export Plug-In . SVG Version: 6.00 Build 0)  -->
<svg version="1.1" id="Capa_1" xmlns="http://www.w3.org/2000/svg" xmlns:xlink="http://www.w3.org/1999/xlink" x="0px" y="0px"
	 viewBox="0 0 522.462 522.462" style="enable-background:new 0 0 522.462 522.462;" xml:space="preserve">
<g>
	<g>
		<path d="M478.923,10.885H43.538C19.505,10.885,0,30.433,0,54.423v283c0,24.011,19.505,43.538,43.538,43.538h174.154v-43.538
			H43.538v-283h435.385v283h-65.308v43.538h65.308c24.011,0,43.538-19.527,43.538-43.538v-283
			C522.462,30.433,502.935,10.885,478.923,10.885z M239.462,511.577h152.385V272.115H239.462V511.577z M337.423,326.538
			c5.987,0,10.885,4.876,10.885,10.885c0,5.987-4.898,10.885-10.885,10.885c-6.008,0-10.885-4.898-10.885-10.885
			C326.538,331.415,331.415,326.538,337.423,326.538z M337.423,370.077c5.987,0,10.885,4.876,10.885,10.885
			c0,5.987-4.898,10.885-10.885,10.885c-6.008,0-10.885-4.898-10.885-10.885C326.538,374.953,331.415,370.077,337.423,370.077z
			 M337.423,413.615c5.987,0,10.885,4.876,10.885,10.885c0,5.987-4.898,10.885-10.885,10.885c-6.008,0-10.885-4.898-10.885-10.885
			C326.538,418.492,331.415,413.615,337.423,413.615z M293.885,326.538c5.987,0,10.885,4.876,10.885,10.885
			c0,5.987-4.898,10.885-10.885,10.885c-6.008,0-10.885-4.898-10.885-10.885C283,331.415,287.876,326.538,293.885,326.538z
			 M293.885,370.077c5.987,0,10.885,4.876,10.885,10.885c0,5.987-4.898,10.885-10.885,10.885c-6.008,0-10.885-4.898-10.885-10.885
			C283,374.953,287.876,370.077,293.885,370.077z M293.885,413.615c5.987,0,10.885,4.876,10.885,10.885
			c0,5.987-4.898,10.885-10.885,10.885c-6.008,0-10.885-4.898-10.885-10.885C283,418.492,287.876,413.615,293.885,413.615z
			 M395.199,153.19c-46.739-28.714-105.581-29.976-153.538-3.309c-5.268,2.939-7.14,9.535-4.223,14.825
			c2.917,5.225,9.535,7.119,14.825,4.201c41.079-22.858,91.496-21.769,131.551,2.83c1.763,1.067,3.744,1.611,5.682,1.611
			c3.657,0,7.227-1.85,9.295-5.181C401.925,163.03,400.336,156.325,395.199,153.19z M366.79,210.421
			c3.657,0,7.249-1.829,9.295-5.181c3.157-5.116,1.524-11.821-3.592-14.977c-33.394-20.463-75.43-21.399-109.673-2.351
			c-5.246,2.895-7.14,9.535-4.223,14.781c2.939,5.246,9.557,7.14,14.803,4.245c27.407-15.238,60.997-14.498,87.73,1.872
			C362.893,209.921,364.852,210.421,366.79,210.421z M284.045,226.117c-5.246,2.917-7.14,9.535-4.223,14.825
			c2.917,5.268,9.557,7.119,14.803,4.223c13.693-7.619,30.433-7.293,43.713,0.849c1.785,1.088,3.744,1.589,5.682,1.589
			c3.657,0,7.249-1.829,9.295-5.203c3.157-5.094,1.524-11.799-3.592-14.977C329.738,215.211,304.573,214.688,284.045,226.117z"/>
	</g>
</g>
<g>
</g>
<g>
</g>
<g>
</g>
<g>
</g>
<g>
</g>
<g>
</g>
<g>
</g>
<g>
</g>
<g>
</g>
<g>
</g>
<g>
</g>
<g>
</g>
<g>
</g>
<g>
</g>
<g>
</g>
</svg>
