<?xml version="1.0" encoding="utf-8"?>
<!-- Generator: Adobe Illustrator 19.0.0, SVG Export Plug-In . SVG Version: 6.00 Build 0)  -->
<svg version="1.1" id="Capa_1" xmlns="http://www.w3.org/2000/svg" xmlns:xlink="http://www.w3.org/1999/xlink" x="0px" y="0px"
	 viewBox="0 0 50 50" style="enable-background:new 0 0 50 50;" xml:space="preserve">
<style type="text/css">
	.st0{fill:#E5251F;}
	.st1{fill:#FFFFFF;}
</style>
<g>
	<rect id="XMLID_2_" class="st0" width="50" height="50"/>
	<g id="XMLID_1_">
		<path id="XMLID_4_" class="st1" d="M13,27.8h-2.5c-1.9,0-3.7-0.9-3.7-3c0-1.5-0.1-6.7,2.4-6.7c0.4,0,2.4,1.6,4.9,1.6
			c0.9,0,1.7-0.2,2.5-0.4c-0.1,0.4-0.1,0.8-0.1,1.3c0,1.7,0.5,3.4,1.5,4.9C16.1,25.4,14.3,26.3,13,27.8z M14.1,18.1
			c-2.7,0-4.9-2.2-4.9-4.9s2.2-4.9,4.9-4.9c2.7,0,4.9,2.2,4.9,4.9S16.7,18.1,14.1,18.1z M33.3,42.4H16.7c-3,0-5.1-1.8-5.1-4.9
			c0-4.3,1-10.9,6.6-10.9c0.6,0,3,2.6,6.8,2.6c3.8,0,6.1-2.6,6.8-2.6c5.6,0,6.6,6.6,6.6,10.9C38.3,40.5,36.3,42.4,33.3,42.4z
			 M25,27.8c-4,0-7.3-3.3-7.3-7.3s3.3-7.3,7.3-7.3c4,0,7.3,3.3,7.3,7.3S29,27.8,25,27.8z M35.9,18.1c-2.7,0-4.9-2.2-4.9-4.9
			s2.2-4.9,4.9-4.9c2.7,0,4.9,2.2,4.9,4.9S38.6,18.1,35.9,18.1z M39.5,27.8H37c-1.3-1.5-3.1-2.4-5-2.4c1-1.4,1.5-3.1,1.5-4.9
			c0-0.4,0-0.8-0.1-1.3c0.8,0.3,1.6,0.4,2.5,0.4c2.6,0,4.5-1.6,4.9-1.6c2.4,0,2.4,5.2,2.4,6.7C43.2,26.9,41.4,27.8,39.5,27.8z"/>
	</g>
</g>
<g id="XMLID_3_">
</g>
<g id="XMLID_11_">
</g>
<g id="XMLID_12_">
</g>
<g id="XMLID_13_">
</g>
<g id="XMLID_14_">
</g>
<g id="XMLID_15_">
</g>
</svg>
