<?xml version="1.0" encoding="utf-8"?>
<!-- Generator: Adobe Illustrator 19.0.0, SVG Export Plug-In . SVG Version: 6.00 Build 0)  -->
<svg version="1.1" id="Capa_1" xmlns="http://www.w3.org/2000/svg" xmlns:xlink="http://www.w3.org/1999/xlink" x="0px" y="0px"
	 viewBox="-144 82 50 50" style="enable-background:new -144 82 50 50;" xml:space="preserve">
<style type="text/css">
	.st0{fill:#E62F31;}
	.st1{fill:#FFFFFF;}
</style>
<circle id="XMLID_3_" class="st0" cx="-119" cy="107" r="25"/>
<g id="XMLID_1_">
</g>
<g id="XMLID_7_">
</g>
<g id="XMLID_8_">
</g>
<g id="XMLID_9_">
</g>
<g id="XMLID_10_">
</g>
<g id="XMLID_11_">
</g>
<g>
	<path class="st1" d="M-135.3,120.1V98.2c0-1.6,1.3-2.9,2.9-2.9h26.8c1.6,0,2.9,1.3,2.9,2.9v21.8h1.4V98.2c0-2.4-1.9-4.3-4.3-4.3
		h-26.8c-2.4,0-4.3,1.9-4.3,4.3v21.8L-135.3,120.1L-135.3,120.1z"/>
	<g>
		<path class="st1" d="M-121.1,100.5c-0.2,0.2-0.4,0.4-0.5,0.7l0.7,0.7c0.1-0.3,0.3-0.5,0.5-0.7c0.8-0.8,2.2-0.8,3.1,0
			c0.2,0.2,0.4,0.4,0.5,0.7l0.7-0.7c-0.1-0.2-0.3-0.5-0.5-0.7C-118,99.3-119.9,99.3-121.1,100.5z"/>
		<path class="st1" d="M-122.6,99.1c-0.2,0.2-0.4,0.4-0.6,0.7l0.6,0.6c0.2-0.2,0.3-0.5,0.5-0.7c1.7-1.7,4.4-1.7,6.1,0
			c0.2,0.2,0.4,0.4,0.5,0.6l0.6-0.6c-0.2-0.2-0.3-0.4-0.5-0.6C-117.3,97.1-120.6,97.1-122.6,99.1z"/>
	</g>
	<g>
		<g>
			<path class="st1" d="M-109.5,118.2l-8.8-15.2c-0.1-0.3-0.4-0.4-0.6-0.4c-0.2,0-0.5,0.1-0.6,0.4l-8.7,15.1c-0.3,0.6,0,1,0.7,1
				h17.4C-109.5,119.1-109.2,118.7-109.5,118.2z M-127.4,118.3l8.6-14.5l8.5,14.5H-127.4z"/>
			<polygon class="st1" points="-119.6,106.6 -121.5,113 -118.8,112.2 -119.3,115.1 -120,115 -119.3,117.5 -117.9,115.4 
				-118.6,115.3 -117.2,110.4 -119.9,111.4 -118.5,106.6 			"/>
		</g>
		<path class="st1" d="M-103.7,107.2c0,0.3-0.3,0.6-0.6,0.6h-10.3c-0.3,0-0.6-0.3-0.6-0.6l0,0c0-0.3,0.3-0.6,0.6-0.6h10.3
			C-104,106.6-103.7,106.9-103.7,107.2L-103.7,107.2z"/>
		<path class="st1" d="M-103.7,110.4c0,0.3-0.3,0.6-0.6,0.6h-8.4c-0.3,0-0.6-0.3-0.6-0.6l0,0c0-0.3,0.3-0.6,0.6-0.6h8.4
			C-104,109.8-103.7,110.1-103.7,110.4L-103.7,110.4z"/>
		<path class="st1" d="M-103.7,113.6c0,0.3-0.3,0.6-0.6,0.6h-6.6c-0.3,0-0.6-0.3-0.6-0.6l0,0c0-0.3,0.3-0.6,0.6-0.6h6.6
			C-104,113-103.7,113.3-103.7,113.6L-103.7,113.6z"/>
		<path class="st1" d="M-134.3,107.2c0,0.3,0.3,0.6,0.6,0.6h10.3c0.3,0,0.6-0.3,0.6-0.6l0,0c0-0.3-0.3-0.6-0.6-0.6h-10.3
			C-134.1,106.6-134.3,106.9-134.3,107.2L-134.3,107.2z"/>
		<path class="st1" d="M-134.3,110.4c0,0.3,0.3,0.6,0.6,0.6h8.4c0.3,0,0.6-0.3,0.6-0.6l0,0c0-0.3-0.3-0.6-0.6-0.6h-8.4
			C-134.1,109.8-134.3,110.1-134.3,110.4L-134.3,110.4z"/>
		<path class="st1" d="M-134.3,113.6c0,0.3,0.3,0.6,0.6,0.6h6.6c0.3,0,0.6-0.3,0.6-0.6l0,0c0-0.3-0.3-0.6-0.6-0.6h-6.6
			C-134.1,113-134.3,113.3-134.3,113.6L-134.3,113.6z"/>
	</g>
</g>
</svg>
