<?xml version="1.0" encoding="utf-8"?>
<!-- Generator: Adobe Illustrator 19.0.0, SVG Export Plug-In . SVG Version: 6.00 Build 0)  -->
<svg version="1.1" id="Capa_1" xmlns="http://www.w3.org/2000/svg" xmlns:xlink="http://www.w3.org/1999/xlink" x="0px" y="0px"
	 viewBox="0 0 50 50" style="enable-background:new 0 0 50 50;" xml:space="preserve">
<style type="text/css">
	.st0{fill:#E62F31;}
	.st1{fill:#FFFFFF;}
</style>
<g id="XMLID_2_">
	<circle id="XMLID_3_" class="st0" cx="25" cy="25" r="25"/>
	<g id="fa-support">
		<path id="XMLID_4_" class="st1" d="M39.6,23.3c0,1.1-0.9,2.1-2.1,2.1v6.2c0,1.1-0.9,2.1-2.1,2.1c-2.9-2.4-7.5-5.6-13-6.1
			c-1.9,0.6-2.6,2.9-1.3,4.2c-1.1,1.8,0.3,3.1,2,4.5c-1,2-5.1,2-6.6,0.6c-0.9-2.9-2.3-5.7-1.2-9.3h-2c-1.4,0-2.6-1.2-2.6-2.6v-3.1
			c0-1.4,1.2-2.6,2.6-2.6h7.7c6.2,0,11.3-3.6,14.4-6.2c1.1,0,2.1,0.9,2.1,2.1v6.2C38.7,21.2,39.6,22.1,39.6,23.3z M35.5,15.6
			c-4.2,3.2-8.3,5.1-12.3,5.5v4.3c4.1,0.5,8.1,2.3,12.3,5.5V15.6z"/>
	</g>
</g>
<g id="XMLID_1_">
</g>
<g id="XMLID_7_">
</g>
<g id="XMLID_8_">
</g>
<g id="XMLID_9_">
</g>
<g id="XMLID_10_">
</g>
<g id="XMLID_11_">
</g>
</svg>
