<?xml version="1.0" encoding="utf-8"?>
<!-- Generator: Adobe Illustrator 19.0.0, SVG Export Plug-In . SVG Version: 6.00 Build 0)  -->
<svg version="1.1" id="Capa_1" xmlns="http://www.w3.org/2000/svg" xmlns:xlink="http://www.w3.org/1999/xlink" x="0px" y="0px"
	 viewBox="-144 82 50 50" style="enable-background:new -144 82 50 50;" xml:space="preserve">
<style type="text/css">
	.st0{fill:#E62F31;}
	.st1{fill:#FFFFFF;}
</style>
<circle id="XMLID_3_" class="st0" cx="-119" cy="107" r="25"/>
<g id="XMLID_1_">
</g>
<g id="XMLID_7_">
</g>
<g id="XMLID_8_">
</g>
<g id="XMLID_9_">
</g>
<g id="XMLID_10_">
</g>
<g id="XMLID_11_">
</g>
<g>
	<g>
		<path class="st1" d="M-104.8,90.7h-28.4c-1.6,0-2.8,1.3-2.8,2.8V112c0,1.6,1.3,2.8,2.8,2.8h11.4V112h-11.4V93.5h28.4V112h-4.3v2.8
			h4.3c1.6,0,2.8-1.3,2.8-2.8V93.5C-101.9,91.9-103.2,90.7-104.8,90.7z M-120.4,123.3h10v-15.6h-10V123.3z M-114,111.3
			c0.4,0,0.7,0.3,0.7,0.7c0,0.4-0.3,0.7-0.7,0.7c-0.4,0-0.7-0.3-0.7-0.7C-114.7,111.6-114.4,111.3-114,111.3z M-114,114.1
			c0.4,0,0.7,0.3,0.7,0.7c0,0.4-0.3,0.7-0.7,0.7c-0.4,0-0.7-0.3-0.7-0.7C-114.7,114.4-114.4,114.1-114,114.1z M-114,117
			c0.4,0,0.7,0.3,0.7,0.7c0,0.4-0.3,0.7-0.7,0.7c-0.4,0-0.7-0.3-0.7-0.7C-114.7,117.3-114.4,117-114,117z M-116.9,111.3
			c0.4,0,0.7,0.3,0.7,0.7c0,0.4-0.3,0.7-0.7,0.7c-0.4,0-0.7-0.3-0.7-0.7C-117.6,111.6-117.3,111.3-116.9,111.3z M-116.9,114.1
			c0.4,0,0.7,0.3,0.7,0.7c0,0.4-0.3,0.7-0.7,0.7c-0.4,0-0.7-0.3-0.7-0.7C-117.6,114.4-117.3,114.1-116.9,114.1z M-116.9,117
			c0.4,0,0.7,0.3,0.7,0.7c0,0.4-0.3,0.7-0.7,0.7c-0.4,0-0.7-0.3-0.7-0.7C-117.6,117.3-117.3,117-116.9,117z M-110.3,99.9
			c-3.1-1.9-6.9-2-10-0.2c-0.3,0.2-0.5,0.6-0.3,1c0.2,0.3,0.6,0.5,1,0.3c2.7-1.5,6-1.4,8.6,0.2c0.1,0.1,0.2,0.1,0.4,0.1
			c0.2,0,0.5-0.1,0.6-0.3C-109.8,100.6-109.9,100.1-110.3,99.9z M-112.1,103.7c0.2,0,0.5-0.1,0.6-0.3c0.2-0.3,0.1-0.8-0.2-1
			c-2.2-1.3-4.9-1.4-7.2-0.2c-0.3,0.2-0.5,0.6-0.3,1c0.2,0.3,0.6,0.5,1,0.3c1.8-1,4-0.9,5.7,0.1
			C-112.4,103.6-112.2,103.7-112.1,103.7z M-117.5,104.7c-0.3,0.2-0.5,0.6-0.3,1c0.2,0.3,0.6,0.5,1,0.3c0.9-0.5,2-0.5,2.9,0.1
			c0.1,0.1,0.2,0.1,0.4,0.1c0.2,0,0.5-0.1,0.6-0.3c0.2-0.3,0.1-0.8-0.2-1C-114.5,104-116.2,104-117.5,104.7z"/>
	</g>
</g>
</svg>
