<?xml version="1.0" encoding="utf-8"?>
<!-- Generator: Adobe Illustrator 19.0.0, SVG Export Plug-In . SVG Version: 6.00 Build 0)  -->
<svg version="1.1" id="Capa_1" xmlns="http://www.w3.org/2000/svg" xmlns:xlink="http://www.w3.org/1999/xlink" x="0px" y="0px"
	 viewBox="0 0 50 50" style="enable-background:new 0 0 50 50;" xml:space="preserve">
<style type="text/css">
	.st0{fill:#E62F31;}
	.st1{fill:#FFFFFF;}
</style>
<g id="XMLID_2_">
	<circle id="XMLID_1_" class="st0" cx="25" cy="25" r="25"/>
	<g id="fa-support_1_">
		<path id="XMLID_4_" class="st1" d="M40.4,19.1v14.4c0,2.3-1.8,4.1-4.1,4.1H13.7c-2.3,0-4.1-1.8-4.1-4.1V19.1
			c0-2.3,1.8-4.1,4.1-4.1h3.6l0.8-2.2c0.4-1.1,1.7-1.9,2.8-1.9h8.2c1.1,0,2.4,0.9,2.8,1.9l0.8,2.2h3.6C38.6,15,40.4,16.9,40.4,19.1z
			 M32.2,26.3c0-4-3.2-7.2-7.2-7.2s-7.2,3.2-7.2,7.2c0,4,3.2,7.2,7.2,7.2S32.2,30.3,32.2,26.3z M29.6,26.3c0,2.6-2.1,4.6-4.6,4.6
			s-4.6-2.1-4.6-4.6c0-2.6,2.1-4.6,4.6-4.6S29.6,23.8,29.6,26.3z"/>
	</g>
</g>
<g id="XMLID_3_">
</g>
<g id="XMLID_8_">
</g>
<g id="XMLID_9_">
</g>
<g id="XMLID_10_">
</g>
<g id="XMLID_11_">
</g>
<g id="XMLID_12_">
</g>
</svg>
